solid occluded_cube_5cm
  facet normal 0 0 -1
    outer loop
      vertex -0.025 -0.025 -0.025
      vertex -0.025 0.025 -0.025
      vertex 0.025 0.025 -0.025
    endloop
  endfacet
  facet normal 0 0 -1
    outer loop
      vertex -0.025 -0.025 -0.025
      vertex 0.025 0.025 -0.025
      vertex 0.025 -0.025 -0.025
    endloop
  endfacet
  facet normal 0 0 1
    outer loop
      vertex -0.025 -0.025 0.025
      vertex 0.025 -0.025 0.025
      vertex 0.025 0.025 0.025
    endloop
  endfacet
  facet normal 0 0 1
    outer loop
      vertex -0.025 -0.025 0.025
      vertex 0.025 0.025 0.025
      vertex -0.025 0.025 0.025
    endloop
  endfacet
  facet normal 0 -1 0
    outer loop
      vertex -0.025 -0.025 -0.025
      vertex 0.025 -0.025 -0.025
      vertex 0.025 -0.025 0.025
    endloop
  endfacet
  facet normal 0 -1 0
    outer loop
      vertex -0.025 -0.025 -0.025
      vertex 0.025 -0.025 0.025
      vertex -0.025 -0.025 0.025
    endloop
  endfacet
  facet normal 1 0 0
    outer loop
      vertex 0.025 -0.025 -0.025
      vertex 0.025 0.025 -0.025
      vertex 0.025 0.025 0.025
    endloop
  endfacet
  facet normal 1 0 0
    outer loop
      vertex 0.025 -0.025 -0.025
      vertex 0.025 0.025 0.025
      vertex 0.025 -0.025 0.025
    endloop
  endfacet
  facet normal 0 1 0
    outer loop
      vertex 0.025 0.025 -0.025
      vertex -0.025 0.025 -0.025
      vertex -0.025 0.025 0.025
    endloop
  endfacet
  facet normal 0 1 -0
    outer loop
      vertex 0.025 0.025 -0.025
      vertex -0.025 0.025 0.025
      vertex 0.025 0.025 0.025
    endloop
  endfacet
  facet normal -1 0 0
    outer loop
      vertex -0.025 0.025 -0.025
      vertex -0.025 -0.025 -0.025
      vertex -0.025 -0.025 0.025
    endloop
  endfacet
  facet normal -1 0 0
    outer loop
      vertex -0.025 0.025 -0.025
      vertex -0.025 -0.025 0.025
      vertex -0.025 0.025 0.025
    endloop
  endfacet
endsolid occluded_cube_5cm
