solid occluded_cube_6cm
  facet normal 0 0 -1
    outer loop
      vertex -0.03 -0.03 -0.03
      vertex -0.03 0.03 -0.03
      vertex 0.03 0.03 -0.03
    endloop
  endfacet
  facet normal 0 0 -1
    outer loop
      vertex -0.03 -0.03 -0.03
      vertex 0.03 0.03 -0.03
      vertex 0.03 -0.03 -0.03
    endloop
  endfacet
  facet normal 0 0 1
    outer loop
      vertex -0.03 -0.03 0.03
      vertex 0.03 -0.03 0.03
      vertex 0.03 0.03 0.03
    endloop
  endfacet
  facet normal 0 0 1
    outer loop
      vertex -0.03 -0.03 0.03
      vertex 0.03 0.03 0.03
      vertex -0.03 0.03 0.03
    endloop
  endfacet
  facet normal 0 -1 0
    outer loop
      vertex -0.03 -0.03 -0.03
      vertex 0.03 -0.03 -0.03
      vertex 0.03 -0.03 0.03
    endloop
  endfacet
  facet normal 0 -1 0
    outer loop
      vertex -0.03 -0.03 -0.03
      vertex 0.03 -0.03 0.03
      vertex -0.03 -0.03 0.03
    endloop
  endfacet
  facet normal 1 0 0
    outer loop
      vertex 0.03 -0.03 -0.03
      vertex 0.03 0.03 -0.03
      vertex 0.03 0.03 0.03
    endloop
  endfacet
  facet normal 1 0 0
    outer loop
      vertex 0.03 -0.03 -0.03
      vertex 0.03 0.03 0.03
      vertex 0.03 -0.03 0.03
    endloop
  endfacet
  facet normal 0 1 0
    outer loop
      vertex 0.03 0.03 -0.03
      vertex -0.03 0.03 -0.03
      vertex -0.03 0.03 0.03
    endloop
  endfacet
  facet normal 0 1 -0
    outer loop
      vertex 0.03 0.03 -0.03
      vertex -0.03 0.03 0.03
      vertex 0.03 0.03 0.03
    endloop
  endfacet
  facet normal -1 0 0
    outer loop
      vertex -0.03 0.03 -0.03
      vertex -0.03 -0.03 -0.03
      vertex -0.03 -0.03 0.03
    endloop
  endfacet
  facet normal -1 0 0
    outer loop
      vertex -0.03 0.03 -0.03
      vertex -0.03 -0.03 0.03
      vertex -0.03 0.03 0.03
    endloop
  endfacet
endsolid occluded_cube_6cm
